<svg xmlns="http://www.w3.org/2000/svg" viewBox="0 0 428.98 92.38"><defs><style>.cls-1{fill:#1a0e33;}.cls-2{fill:#010101;}</style></defs><g id="Layer_2" data-name="Layer 2"><g id="Layer_1-2" data-name="Layer 1"><path class="cls-1" d="M96.52,16.87H115c11.86,0,20.58,3.63,20.58,14.22,0,5.44-3,10.74-8,12.5V44c6.39,1.44,11.08,5.89,11.08,13.69,0,11.55-9.46,17-22.17,17h-20ZM114.07,40.7c8.05,0,11.47-3.14,11.47-8.16,0-5.58-3.77-7.69-11.26-7.69h-7.52V40.7Zm1.34,25.91c8.47,0,13.2-3,13.2-9.53,0-6.07-4.58-8.72-13.2-8.72h-8.65V66.61Z"/><path class="cls-1" d="M145.47,53c0-14.09,9.78-22.77,20-22.77,11.72,0,17.9,8.47,17.9,20.58a26.3,26.3,0,0,1-.44,4.94H155.39c.85,7.7,5.79,12.07,12.78,12.07a18.43,18.43,0,0,0,10.06-3.14L181.69,71a26.88,26.88,0,0,1-14.86,4.7C154.86,75.65,145.47,67.24,145.47,53Zm29.09-4.17c0-6.67-3-10.73-8.89-10.73-5,0-9.5,3.78-10.38,10.73Z"/><path class="cls-1" d="M193.08,63.43V12.24h10.17V64c0,2.51,1.13,3.39,2.18,3.39a5.82,5.82,0,0,0,1.59-.18l1.27,7.59a14.07,14.07,0,0,1-5.36.89C195.73,75.65,193.08,71,193.08,63.43Z"/><path class="cls-1" d="M214.21,91.5l1.87-7.88a11.84,11.84,0,0,0,3.11.61c4.55,0,7.2-3.11,8.64-7.45l.82-2.72L211.6,31.24h10.3l7.49,21.25c1.31,3.85,2.54,8.12,3.81,12.25h.35c1.1-4,2.19-8.3,3.32-12.25l6.46-21.25h9.82L237.47,76.56c-3.6,9.77-8.15,15.82-17.61,15.82A16.92,16.92,0,0,1,214.21,91.5Z"/><path class="cls-1" d="M261.57,16.87h11.58l10.2,28.21c1.27,3.67,2.44,7.55,3.71,11.33h.35c1.27-3.78,2.37-7.66,3.64-11.33l10-28.21h11.58V74.59h-9.39V48.18c0-5.33.81-13,1.3-18.36h-.35l-4.66,13.42L290,69.17H284l-9.53-25.93-4.59-13.42h-.35c.49,5.35,1.3,13,1.3,18.36V74.59h-9.21Z"/><path class="cls-1" d="M324.11,62.94c0-9.29,7.69-14.12,25.49-16-.14-4.66-2-8.54-7.88-8.54-4.3,0-8.36,1.94-12.17,4.27l-3.75-6.78c4.77-3,10.91-5.68,17.8-5.68,10.83,0,16.16,6.67,16.16,18.74V74.59h-8.33l-.77-4.8h-.29c-3.88,3.32-8.33,5.86-13.45,5.86C329.33,75.65,324.11,70.49,324.11,62.94Zm25.49,0V53.23c-11.76,1.48-15.68,4.55-15.68,8.93,0,3.83,2.61,5.51,6.25,5.51S346.38,65.94,349.6,63Z"/><path class="cls-1" d="M372,31.24h8.33l.78,7.73h.28c3.09-5.65,7.68-8.79,12.32-8.79a11.06,11.06,0,0,1,4.91.88l-1.77,8.83a14.4,14.4,0,0,0-4.44-.71c-3.46,0-7.63,2.36-10.24,9V74.59H372Z"/><path class="cls-1" d="M406.42,60V39.32h-6.18V31.69l6.71-.45,1.2-11.83h8.44V31.24h11.05v8.08H416.59V60c0,5.11,2,7.61,6.14,7.61a13.48,13.48,0,0,0,4.52-1L429,74.06a28.37,28.37,0,0,1-8.86,1.59C410.13,75.65,406.42,69.33,406.42,60Z"/><path class="cls-2" d="M62,11.18a1.13,1.13,0,1,0,1.12,1.12A1.12,1.12,0,0,0,62,11.18Z"/><path class="cls-2" d="M24.45,12.3a1.13,1.13,0,1,0-1.13,1.13A1.13,1.13,0,0,0,24.45,12.3Z"/><path class="cls-2" d="M22.2,12.3a1.13,1.13,0,1,1,1.12,1.13A1.12,1.12,0,0,1,22.2,12.3Z"/><path class="cls-2" d="M62,13.43a1.13,1.13,0,1,1,1.12-1.13A1.13,1.13,0,0,1,62,13.43Z"/><path class="cls-1" d="M79.82,1.48A1.59,1.59,0,0,0,78.23,0H7.05A1.58,1.58,0,0,0,5.47,1.48L0,76.56a1.62,1.62,0,0,0,.43,1.2,1.59,1.59,0,0,0,1.16.5H83.7a1.59,1.59,0,0,0,1.59-1.7ZM6.24,73.27H4.65v-1.6H6.24Zm3.2,0H7.85v-1.6H9.44Zm3.19,0H11v-1.6h1.59Zm3.2,0h-1.6v-1.6h1.6Zm3.19,0H17.43v-1.6H19Zm3.19,0H20.62v-1.6h1.59Zm3.2,0h-1.6v-1.6h1.6Zm3.19,0H27v-1.6H28.6Zm3.19,0H30.2v-1.6h1.59Zm3.2,0H33.4v-1.6H35Zm3.19,0H36.59v-1.6h1.59Zm3.2,0h-1.6v-1.6h1.6Zm3.19,0H43v-1.6h1.59Zm3.19,0H46.17v-1.6h1.59Zm3.2,0H49.37v-1.6H51Zm3.19,0H52.56v-1.6h1.59Zm3.19,0H55.75v-1.6h1.59Zm3.2,0H59v-1.6h1.59Zm3.19,0H62.14v-1.6h1.59Zm-.17-57V28.72C63.49,42,54.11,52.85,42.65,52.85S21.81,42,21.73,28.73V16.3a4.31,4.31,0,1,1,3.19,0V28.72c.06,11.55,8,21,17.73,21s17.67-9.4,17.73-21V16.3a4.3,4.3,0,1,1,3.18,0Zm3.37,57h-1.6v-1.6h1.6Zm3.19,0H68.53v-1.6h1.59Zm3.19,0H71.72v-1.6h1.59Zm3.2,0H74.92v-1.6h1.59Zm3.19,0H78.11v-1.6H79.7Z"/></g></g></svg>